<svg width="24" height="21" viewBox="0 0 24 21" fill="none" xmlns="http://www.w3.org/2000/svg">
<path d="M11.0435 2.27925L2.2911 10.9523C1.4648 11.7711 1.00006 12.8822 1.00006 14.0412C1.00006 15.2002 1.4648 16.3112 2.2911 17.13L3.89094 18.7207C4.71725 19.5395 5.83847 20 7.00807 20C8.17768 20 9.2989 19.5395 10.1252 18.7207L21.5611 7.38852C22.181 6.77419 22.5298 5.94 22.5298 5.07143C22.5298 4.20286 22.181 3.36867 21.5611 2.75433L20.7594 1.95995C20.1395 1.34562 19.2976 1 18.4211 1C17.5446 1 16.7028 1.34562 16.0828 1.95995L5.82751 12.1222C5.4139 12.5321 5.18199 13.0876 5.18199 13.6667C5.18199 14.2457 5.4139 14.8012 5.82751 15.2111L5.8684 15.2471C6.28201 15.657 6.84262 15.8868 7.42697 15.8868C8.01131 15.8868 8.57192 15.657 8.98553 15.2471L16.5574 7.74394" stroke="#FF0028" stroke-width="2" stroke-linecap="round" stroke-linejoin="round"/>
</svg>
